<svg version="1.1" xmlns="http://www.w3.org/2000/svg" xmlns:xlink="http://www.w3.org/1999/xlink" width="184" height="50"><defs/><g><rect fill="#ffffff" stroke="none" x="0" y="0" width="184" height="50"/><g transform="translate(92,25) scale(1,1)"><path fill="rgb(219,234,254)" stroke="rgb(30,64,175)" paint-order="fill stroke markers" d=" M 0 -23 L 82 -23 L 82 -23 A 8 8 0 0 1 90 -15 L 90 15 L 90 15 A 8 8 0 0 1 82 23 L -82 23 L -82 23 A 8 8 0 0 1 -90 15.000000000000002 L -90 -15 L -90 -14.999999999999998 A 8 8 0 0 1 -82 -23 L 0 -23 Z" fill-opacity="0.45" stroke-opacity="0.45" stroke-miterlimit="10" stroke-width="2" stroke-dasharray="4,2"/><g transform="scale(1,1) translate(-92,-25)"/></g></g></svg>